{"asset":{"version":"2.0","generator":"ImageSceneRenderer deterministic fixture"},"scene":0,"scenes":[{"nodes":[0]}],"nodes":[{"name":"Material Lab","translation":[0,0,0],"rotation":[0,0.0998334,0,0.9950042],"children":[1,2,3,4]},{"name":"Textured Cube","mesh":0,"translation":[-1.8,0.7,0],"scale":[1.4,1.4,1.4]},{"name":"Textured Sphere","mesh":1,"translation":[0.2,1,0]},{"name":"Mirrored Sphere","mesh":1,"matrix":[-0.75,0,0,0,0,0.75,0,0,0,0,0.75,0,2.3,0.75,0,1]},{"name":"Ground","mesh":2,"scale":[8,1,6]}],"samplers":[{"magFilter":9729,"minFilter":9987,"wrapS":10497,"wrapT":10497}],"textures":[{"source":0,"sampler":0},{"source":1,"sampler":0},{"source":2,"sampler":0},{"source":3,"sampler":0}],"materials":[{"name":"Painted metal","pbrMetallicRoughness":{"baseColorTexture":{"index":0},"metallicRoughnessTexture":{"index":1}},"normalTexture":{"index":2},"occlusionTexture":{"index":1,"strength":0.8},"emissiveTexture":{"index":3},"emissiveFactor":[1,0.7,0.2]},{"name":"Shared textured metal","pbrMetallicRoughness":{"baseColorFactor":[0.8,0.9,1,1],"baseColorTexture":{"index":0},"metallicRoughnessTexture":{"index":1}},"normalTexture":{"index":2,"scale":0.7},"occlusionTexture":{"index":1}},{"name":"Neutral ground","pbrMetallicRoughness":{"baseColorFactor":[0.22,0.24,0.28,1],"metallicFactor":0,"roughnessFactor":0.8}}],"meshes":[{"primitives":[{"attributes":{"POSITION":0,"NORMAL":1,"TEXCOORD_0":2},"indices":3,"material":0}]},{"primitives":[{"attributes":{"POSITION":4,"NORMAL":5,"TEXCOORD_0":6},"indices":7,"material":1}]},{"primitives":[{"attributes":{"POSITION":8,"NORMAL":9,"TEXCOORD_0":10},"indices":11,"material":2}]}],"accessors":[{"bufferView":0,"componentType":5126,"count":24,"type":"VEC3","min":[-0.5,-0.5,-0.5],"max":[0.5,0.5,0.5]},{"bufferView":0,"byteOffset":12,"componentType":5126,"count":24,"type":"VEC3"},{"bufferView":0,"byteOffset":40,"componentType":5126,"count":24,"type":"VEC2"},{"bufferView":1,"componentType":5123,"count":36,"type":"SCALAR"},{"bufferView":2,"componentType":5126,"count":561,"type":"VEC3","min":[-1,-1,-1],"max":[1,1,1]},{"bufferView":2,"byteOffset":12,"componentType":5126,"count":561,"type":"VEC3"},{"bufferView":2,"byteOffset":40,"componentType":5126,"count":561,"type":"VEC2"},{"bufferView":3,"componentType":5123,"count":2880,"type":"SCALAR"},{"bufferView":4,"componentType":5126,"count":4,"type":"VEC3","min":[-0.5,0,-0.5],"max":[0.5,0,0.5]},{"bufferView":4,"byteOffset":12,"componentType":5126,"count":4,"type":"VEC3"},{"bufferView":4,"byteOffset":40,"componentType":5126,"count":4,"type":"VEC2"},{"bufferView":5,"componentType":5123,"count":6,"type":"SCALAR"}],"images":[{"uri":"base%20color.png"},{"uri":"orm.png"},{"uri":"normal.png"},{"uri":"emissive.png"}],"bufferViews":[{"buffer":0,"byteOffset":0,"byteLength":1728,"byteStride":72},{"buffer":0,"byteOffset":1728,"byteLength":72},{"buffer":0,"byteOffset":1800,"byteLength":40392,"byteStride":72},{"buffer":0,"byteOffset":42192,"byteLength":5760},{"buffer":0,"byteOffset":47952,"byteLength":288,"byteStride":72},{"buffer":0,"byteOffset":48240,"byteLength":12}],"buffers":[{"uri":"MaterialLab.bin","byteLength":48252}]}